<svg xmlns="http://www.w3.org/2000/svg" width="1080" height="318" viewBox="0 0 1080 318" role="img" aria-labelledby="title desc">
<title id="title">Layered warehouse</title><desc id="desc">One writer owns raw, transform, and marts databases. Its BI read pool can read all three layers. The pipeline refreshes rows outside Terraform.</desc>
<rect width="1080" height="318" fill="#F8F8F7"/>
<rect x="32" y="24" width="1016" height="160" rx="2" fill="#F4EFEA" stroke="#C5BBB1"/>
<text x="50" y="52" fill="#383838" font-family="Arial, sans-serif" font-size="16" font-weight="700">Writer account</text>
<rect x="52" y="80" width="242" height="74" rx="2" fill="#FFFFFF" stroke="#383838"/>
<text x="68" y="112" fill="#383838" font-family="Arial, sans-serif" font-size="20" font-weight="700">Raw</text>
<text x="68" y="134" fill="#383838" font-family="Arial, sans-serif" font-size="14" font-weight="400">orders</text>
<rect x="419" y="80" width="242" height="74" rx="2" fill="#FFFFFF" stroke="#383838"/>
<text x="435" y="112" fill="#383838" font-family="Arial, sans-serif" font-size="20" font-weight="700">Transform</text>
<text x="435" y="134" fill="#383838" font-family="Arial, sans-serif" font-size="14" font-weight="400">orders_latest</text>
<rect x="786" y="80" width="242" height="74" rx="2" fill="#FFFFFF" stroke="#383838"/>
<text x="802" y="112" fill="#383838" font-family="Arial, sans-serif" font-size="20" font-weight="700">Marts</text>
<text x="802" y="134" fill="#383838" font-family="Arial, sans-serif" font-size="14" font-weight="400">daily_revenue</text>
<polyline points="294,117 419,117" fill="none" stroke="#383838" stroke-width="2"/>
<polygon points="419,117 411,112 411,122" fill="#383838"/>
<text x="324" y="104" fill="#666666" font-family="Arial, sans-serif" font-size="14" font-weight="400">dedupe</text>
<polyline points="661,117 786,117" fill="none" stroke="#383838" stroke-width="2"/>
<polygon points="786,117 778,112 778,122" fill="#383838"/>
<text x="693" y="104" fill="#666666" font-family="Arial, sans-serif" font-size="14" font-weight="400">refresh</text>
<rect x="786" y="232" width="242" height="62" rx="2" fill="#CEEBFF" stroke="#383838"/>
<text x="802" y="264" fill="#383838" font-family="Arial, sans-serif" font-size="20" font-weight="700">BI</text>
<text x="802" y="286" fill="#383838" font-family="Arial, sans-serif" font-size="14" font-weight="400">Writer&#x27;s read pool</text>
<polyline points="907,154 907,232" fill="none" stroke="#383838" stroke-width="2"/>
<polygon points="907,232 902,224 912,224" fill="#383838"/>
</svg>
